<?xml version="1.0" encoding="UTF-8"?>
<!DOCTYPE svg PUBLIC "-//W3C//DTD SVG 1.1//EN" "http://www.w3.org/Graphics/SVG/1.1/DTD/svg11.dtd">
<!-- Creator: CorelDRAW 2021 (64-Bit) -->
<svg xmlns="http://www.w3.org/2000/svg" xml:space="preserve" width="7000px" height="5000px" version="1.1" style="shape-rendering:geometricPrecision; text-rendering:geometricPrecision; image-rendering:optimizeQuality; fill-rule:evenodd; clip-rule:evenodd"
viewBox="0 0 678.75 484.82"
 xmlns:xlink="http://www.w3.org/1999/xlink"
 xmlns:xodm="http://www.corel.com/coreldraw/odm/2003">
 <defs>
  <style type="text/css">
   <![CDATA[
    .fil0 {fill:#051524}
    .fil3 {fill:#AEABB9}
    .fil2 {fill:white}
    .fil1 {fill:white}
   ]]>
  </style>
 </defs>
 <g id="Layer_x0020_1">
  <metadata id="CorelCorpID_0Corel-Layer"/>
  <rect class="fil0" width="678.75" height="484.82"/>
  <g id="_2268707270592">
   <path class="fil1" d="M288.79 362.71c-2.61,-0.63 -5.11,-1.85 -7.34,-3.65 -9.61,-7.76 -18.59,-16.25 -26.84,-25.39 -2.51,-2.79 -3.99,-5.92 -4.45,-9.45 -3.31,-1.17 -6.29,-3.31 -8.54,-6.3 -14.76,-19.63 -31.06,-49.27 -35.85,-73.75 -0.23,-1.18 -0.33,-2.21 -0.33,-3.41l0 -115.18c-2.8,-3.17 -4.49,-7.3 -4.49,-11.81l0 -24.7c0,-9.92 8.22,-18.02 18.3,-18.02l73.81 0c2.07,0 4.07,0.34 5.93,0.97 1.87,-0.63 3.86,-0.97 5.94,-0.97l68.89 0c2.08,0 4.07,0.34 5.94,0.97 1.86,-0.63 3.85,-0.97 5.93,-0.97l24.65 0c3.65,0 7.05,1.06 9.91,2.88 2.86,-1.82 6.26,-2.88 9.91,-2.88l29.33 0c10.09,0 18.31,8.1 18.31,18.02l0 24.7c0,4.51 -1.7,8.64 -4.49,11.81l0 115.18c0,1.2 -0.1,2.22 -0.33,3.4 -2.5,12.78 -8.7,27.77 -14.46,39.32 -14.57,29.23 -35.67,54.94 -61.22,75.57 -2.23,1.81 -4.73,3.03 -7.34,3.66 -1.29,2.32 -3.14,4.36 -5.49,6.02 -4.74,3.33 -9.59,6.5 -14.54,9.51l0 5.97c0,5.11 -1.91,9.5 -5.66,13.03l-12.24 11.53c-7.08,6.67 -18.23,6.67 -25.31,0l-12.24 -11.53c-3.75,-3.53 -5.66,-7.92 -5.66,-13.03l0 -5.97c-4.95,-3 -9.8,-6.18 -14.54,-9.51 -2.35,-1.66 -4.2,-3.7 -5.49,-6.02zm8.53 -285.76c-1.37,-0.47 -2.81,-0.7 -4.26,-0.7l-73.81 0c-7.09,0 -13.1,5.66 -13.1,12.82l0 24.7c0,3.11 1.14,6.05 3.19,8.37 0.87,0.99 1.3,2.12 1.3,3.44l0 115.18c0,0.83 0.07,1.59 0.23,2.41 4.66,23.81 20.37,52.3 34.91,71.62 1.56,2.08 3.65,3.66 6.11,4.53 1.89,0.67 3.16,2.23 3.42,4.22 0.34,2.58 1.42,4.72 3.16,6.65 8.08,8.95 16.87,17.25 26.24,24.82 1.56,1.26 3.35,2.18 5.3,2.65 1.46,0.35 2.59,1.21 3.33,2.53 0.96,1.73 2.32,3.16 3.93,4.29 4.64,3.27 9.39,6.37 14.24,9.31 1.6,0.97 2.51,2.58 2.51,4.45l0 5.97c0,3.7 1.33,6.72 4.02,9.25l12.25 11.53c5.07,4.78 13.09,4.78 18.17,0l12.25 -11.53c2.69,-2.53 4.02,-5.55 4.02,-9.25l0 -5.97c0,-1.87 0.91,-3.48 2.5,-4.45 4.86,-2.94 9.61,-6.05 14.25,-9.31 1.61,-1.14 2.97,-2.56 3.93,-4.29 0.73,-1.32 1.86,-2.18 3.33,-2.53 1.95,-0.47 3.74,-1.39 5.29,-2.65 24.88,-20.09 45.56,-45.21 59.84,-73.85 5.76,-11.54 11.54,-25.33 14.01,-37.99 0.16,-0.82 0.23,-1.58 0.23,-2.41l0 -115.18c0,-1.32 0.43,-2.45 1.3,-3.44 2.05,-2.32 3.19,-5.26 3.19,-8.37l0 -24.7c0,-7.16 -6.01,-12.82 -13.11,-12.82l-29.33 0c-2.53,0 -4.98,0.7 -7.12,2.06 -1.74,1.12 -3.84,1.12 -5.58,0 -2.13,-1.36 -4.59,-2.06 -7.12,-2.06l-24.65 0c-1.45,0 -2.89,0.23 -4.27,0.7 -1.12,0.38 -2.21,0.38 -3.33,0 -1.38,-0.47 -2.82,-0.7 -4.27,-0.7l-68.89 0c-1.45,0 -2.89,0.23 -4.27,0.7 -1.13,0.38 -2.21,0.38 -3.34,0z"/>
   <path class="fil2" d="M339.37 89.36l-34.44 0 0 269.12c5.2,3.71 10.7,7.33 16.56,10.82l0 -99.23 0 -4.99 5.64 0 2.24 0 0 -150.55 10 0 10 0 0 150.55 2.25 0 5.64 0 0 4.99 0 99.22c5.85,-3.48 11.36,-7.1 16.56,-10.82l0 -269.11 -34.45 0zm-71.07 75.98l0 -51.13 -19.75 0 0 70.42 19.75 -19.29zm117.39 184.05c58.09,-47.64 69.31,-105.99 69.31,-105.99l0 -128.96 4.49 0 0 -25.08 -29.33 0 0 112.41 -19.82 -21.02 0 -91.39 -24.65 0 0 99.36 44.29 40.52c0,0 5.01,24.67 -19.64,59.3l0 -47.86 -24.65 -20.55 0 129.26zm-46.32 -79.32l-10 0 -2.24 0 0 119.02 12.24 11.71 12.25 -11.71 0 -119.02 -2.25 0 -10 0zm-46.31 -180.71l-73.81 0 0 25.08 4.49 0 0 128.96c0,0 6.11,31.71 32.59,67.47l0 -44.21c-5.05,-7.97 -7.78,-23.26 -7.78,-23.26l0 -36.93 19.75 0 0 119.13c7.12,8.02 15.32,16.04 24.76,23.79l0 -158.09 -27.09 0.9 27.09 -25.67 0 -77.17z"/>
   <polygon class="fil3" points="410.34,278.19 396.1,318.62 396.65,250.61 410.02,240.41 410.34,240.68 "/>
   <path class="fil3" d="M459.49 90.18l-14.56 14.82 -1.02 137.45c0,0 0.9,36.96 -46.86,76.33l-11.36 29.59 0 1.02c58.09,-47.64 69.31,-105.99 69.31,-105.99l0 -128.96 4.49 0 0 -24.26z"/>
   <polygon class="fil3" points="410.34,91.58 398.96,101.56 399.54,185.35 441.6,220.28 429.99,201.59 410.34,180.75 "/>
   <path class="fil3" d="M363.91 365.18c3.43,-2.19 6.73,-4.43 9.91,-6.71l0 -267.2 -11.1 10.83 1.19 263.08z"/>
   <polygon class="fil3" points="340.1,400.11 339.71,280.09 351.3,270.07 351.62,270.07 351.62,389.09 "/>
   <path class="fil3" d="M316.31 366.12c1.7,1.07 3.43,2.13 5.18,3.18l0 -99.23 0 -4.99 5.64 0 2.24 0 0 -150.55 10 0 9.61 0 12.07 -11.74 -43.02 -0.36 -1.72 263.69z"/>
   <path class="fil3" d="M293.06 191.4l-9.52 5.68 0.01 144.04c3.02,2.78 6.19,5.54 9.51,8.27l0 -157.99z"/>
   <path class="fil3" d="M256.33 286.48c-4.26,-4.03 -14.89,-16.7 -19.6,-45.94l-2.09 -137.01 43.16 -0.25 -11.08 10.93 -18.17 0 0 68.74 -9.84 13.77 42.34 -30.27 -0.19 -63.96 12.2 -11.61 0 75.65 -26.98 25.57 -27.73 6.35 41.15 -0.51 -14.65 8.53 -16.3 0 0 36.93c0,0 2.73,15.29 7.78,23.26l0 19.82z"/>
  </g>
 </g>
</svg>
